# xmcd
#
# Track frame offsets:
#	150
#	13442
#	27094
#	40735
#	53946
#	66364
#	84573
#	97359
#	108307
#	118563
#
# Disc length: 1785 seconds
#
# Revision: 0
# Processed by: cddbd v1.4PL0 Copyright (c) Steve Scherf et al.
# Submitted via: EasyCDDAExtractor 4.6.0.1
#
DISCID=8806f70a
DTITLE=Banda Zeta - Presumidas, S.A.
DYEAR=1900
DGENRE=Latin
TTITLE0=Presumidas, S.A.
TTITLE1=Los Dias Del Arcoiris
TTITLE2=Dejenme Si Estoy Llorando
TTITLE3=Balada Del Parque Frio
TTITLE4=Aerobics De Señoritas
TTITLE5=Reventon Unisex
TTITLE6=No Dejes De Preocuparte
TTITLE7=Juarez
TTITLE8=Echando Los Perros
TTITLE9=Porque Me Quite Del Vicio
EXTD=
EXTT0=
EXTT1=
EXTT2=
EXTT3=
EXTT4=
EXTT5=
EXTT6=
EXTT7=
EXTT8=
EXTT9=
PLAYORDER=
